<svg xmlns="http://www.w3.org/2000/svg" viewBox="0 0 512 512"><g transform="translate(256,256) scale(2.05) translate(-256,-256)"><path d="M251.8 141.2L243.0 142.0L234.2 143.5L221.5 147.2L214.2 150.2L204.0 155.8L197.8 160.0L190.5 166.0L184.5 172.0L181.5 175.5L176.5 182.5L173.5 187.8L171.8 191.8L163.0 198.2L157.0 203.8L151.2 210.2L144.5 220.2L139.5 230.8L137.2 237.2L135.5 244.0L134.0 253.5L133.5 264.8L134.2 275.2L136.8 287.8L141.5 300.8L146.8 310.5L150.5 316.0L155.0 321.5L163.0 329.2L167.5 332.8L171.5 335.2L173.0 336.8L174.8 340.0L181.5 349.5L191.2 359.8L198.8 365.8L206.0 370.5L213.0 374.2L222.0 378.0L229.0 380.2L239.2 382.5L250.5 383.8L262.0 383.8L273.2 382.5L284.8 379.8L296.8 375.2L308.5 369.0L315.8 364.0L322.8 358.0L329.0 351.5L332.2 347.5L336.0 342.2L339.0 337.0L340.5 335.5L345.0 332.5L350.5 328.0L357.0 321.5L361.5 316.0L366.8 308.0L370.8 300.2L374.0 291.8L376.8 281.2L377.8 274.8L378.2 269.0L378.2 257.5L377.2 248.2L374.5 236.8L370.5 226.5L366.2 218.5L362.2 212.5L357.0 206.0L351.0 200.0L340.8 192.0L338.0 186.2L333.8 179.5L329.5 174.0L322.0 166.2L315.8 161.0L307.0 155.0L298.0 150.2L292.2 147.8L281.2 144.2L272.8 142.5L261.2 141.2ZM251.5 151.8L260.8 151.8L270.5 152.8L278.0 154.2L285.0 156.2L292.8 159.2L298.8 162.2L306.8 167.2L312.8 172.0L319.8 179.0L325.8 187.0L330.8 196.5L333.5 204.5L335.2 214.5L335.2 253.5L347.0 253.5L347.0 221.5L346.8 216.0L346.0 211.2L346.2 210.5L349.8 214.0L355.0 220.8L358.2 226.0L361.5 232.5L364.5 240.5L366.0 246.2L367.2 253.5L367.8 260.0L367.8 266.5L366.8 276.2L365.0 284.2L362.8 291.2L361.2 295.0L356.8 303.8L353.5 308.8L348.2 315.2L345.0 318.5L344.8 318.2L346.2 311.2L347.0 301.2L347.0 268.5L335.2 268.5L335.2 308.8L334.8 313.5L333.2 320.5L331.2 326.5L327.8 334.0L324.5 339.2L319.0 346.2L312.5 352.8L308.0 356.5L299.2 362.2L290.2 366.8L280.5 370.2L272.0 372.2L262.2 373.5L250.5 373.5L244.0 372.8L233.0 370.5L225.2 368.0L220.8 366.2L212.8 362.2L205.0 357.2L198.5 352.0L191.2 344.5L185.2 336.2L181.2 328.2L178.5 320.0L177.2 313.8L176.8 309.0L176.8 268.5L165.0 268.5L165.0 302.0L165.8 312.0L167.2 318.0L166.8 318.2L162.2 313.5L158.5 308.8L154.0 301.8L151.0 295.8L148.5 289.5L146.2 281.5L145.0 274.5L144.2 265.8L144.5 256.2L145.5 248.8L147.2 241.5L149.5 235.0L154.0 225.5L156.0 222.2L160.5 216.0L165.5 210.5L166.0 210.8L165.5 213.8L165.0 220.8L165.0 253.5L176.8 253.5L176.8 215.0L178.0 207.0L180.5 199.0L183.8 191.8L188.2 184.5L193.5 178.0L198.5 173.0L204.0 168.5L210.8 164.0L218.2 160.0L225.5 157.0L235.5 154.0L243.8 152.5ZM261.8 342.2L261.8 353.8L305.2 353.8L305.2 342.2ZM206.5 342.2L206.5 353.8L250.2 353.5L250.0 342.2ZM323.8 268.2L312.0 268.5L311.8 289.0L296.2 286.0L263.0 276.5L252.0 274.2L247.0 273.8L237.5 273.8L230.8 274.5L225.8 275.5L225.8 275.0L227.5 274.0L234.0 271.5L240.5 269.8L248.5 268.5L259.8 268.2L272.2 269.5L282.0 269.5L288.5 268.8L295.0 267.2L302.5 264.8L310.2 261.5L318.0 257.5L309.8 254.2L301.5 250.2L295.0 246.0L286.8 239.5L280.2 235.8L277.5 234.8L273.8 234.0L268.5 234.0L263.5 235.2L260.5 236.8L257.0 239.2L251.8 244.5L245.8 252.0L239.2 258.2L233.8 262.0L226.0 265.8L221.5 267.2L217.2 269.5L213.2 272.8L210.5 276.8L208.5 278.8L205.2 279.8L205.2 290.5L213.8 288.2L222.8 286.8L230.8 286.0L244.0 286.0L254.2 287.0L265.8 289.0L291.2 295.2L292.0 295.8L288.2 297.5L283.2 295.8L276.2 294.0L265.0 292.0L256.8 291.2L247.2 291.2L241.2 291.8L232.5 293.2L220.5 296.8L212.5 300.0L205.5 303.5L200.5 306.5L200.2 268.5L188.2 268.5L188.2 318.5L189.0 322.5L191.0 324.8L192.2 325.5L196.2 325.5L197.8 324.8L199.2 323.2L200.2 321.0L200.5 319.0L205.5 314.8L209.8 312.0L217.0 308.2L225.8 304.8L232.5 302.8L242.8 300.8L251.2 300.0L259.2 300.0L270.8 301.2L276.0 302.2L279.0 303.2L268.5 310.5L259.0 319.0L206.8 319.0L206.5 330.2L305.2 330.2L305.2 319.0L275.2 318.8L281.5 313.8L293.2 306.5L303.5 301.5L311.8 298.5L312.0 320.5L312.5 322.2L314.2 324.5L316.0 325.5L318.8 325.8L320.5 325.2L322.8 323.2L323.8 321.0ZM251.8 260.2L258.0 251.8L262.5 247.2L266.0 245.2L268.8 244.5L273.0 244.5L277.5 245.8L289.0 253.5L296.0 257.5L295.2 258.0L291.0 259.0L281.5 260.0L258.2 259.8L252.5 260.5ZM316.8 198.8L315.2 199.2L313.0 201.2L312.0 203.8L312.0 252.2L316.8 253.5L323.8 253.5L323.8 203.5L323.0 201.5L321.5 199.8L319.0 198.8ZM193.2 198.8L190.8 199.8L189.5 201.0L188.8 202.2L188.2 205.2L188.2 253.5L200.2 253.5L200.2 204.2L199.5 201.8L197.8 199.8L195.2 198.8ZM261.8 196.5L262.0 207.8L305.2 207.8L305.2 196.2ZM206.5 196.2L206.5 207.8L250.2 207.5L250.0 196.2ZM261.8 172.0L262.0 183.5L305.2 183.5L305.2 172.0ZM206.5 172.0L206.5 183.5L250.2 183.2L250.0 172.0Z" fill="#f59e0b" fill-rule="evenodd"/></g></svg>