<svg xmlns="http://www.w3.org/2000/svg" viewBox="0 0 512 512"><path d="M251.8 141.2L243.0 142.0L234.2 143.5L221.5 147.2L214.2 150.2L204.0 155.8L197.8 160.0L190.5 166.0L184.5 172.0L181.5 175.5L176.5 182.5L173.5 187.8L171.8 191.8L163.0 198.2L157.0 203.8L151.2 210.2L144.5 220.2L139.5 230.8L137.2 237.2L135.5 244.0L134.0 253.5L133.5 264.8L134.2 275.2L136.8 287.8L141.5 300.8L146.8 310.5L150.5 316.0L155.0 321.5L163.0 329.2L167.5 332.8L171.5 335.2L173.0 336.8L174.8 340.0L181.5 349.5L191.2 359.8L198.8 365.8L206.0 370.5L213.0 374.2L222.0 378.0L229.0 380.2L239.2 382.5L250.5 383.8L262.0 383.8L273.2 382.5L284.8 379.8L296.8 375.2L308.5 369.0L315.8 364.0L322.8 358.0L329.0 351.5L332.2 347.5L336.0 342.2L339.0 337.0L340.5 335.5L345.0 332.5L350.5 328.0L357.0 321.5L361.5 316.0L366.8 308.0L370.8 300.2L374.0 291.8L376.8 281.2L377.8 274.8L378.2 269.0L378.2 257.5L377.2 248.2L374.5 236.8L370.5 226.5L366.2 218.5L362.2 212.5L357.0 206.0L351.0 200.0L340.8 192.0L338.0 186.2L333.8 179.5L329.5 174.0L322.0 166.2L315.8 161.0L307.0 155.0L298.0 150.2L292.2 147.8L281.2 144.2L272.8 142.5L261.2 141.2Z" fill="#8B4513" fill-rule="evenodd"/></svg>
